<svg viewBox="0 0 1846 3015" xmlns="http://www.w3.org/2000/svg" xml:space="preserve" style="fill-rule:evenodd;clip-rule:evenodd;stroke-linecap:round;stroke-linejoin:round;stroke-miterlimit:1.58537;fill:white;stroke:white;stroke-width:16px"><path d="M222.192 3020s2.218-199.05-3.433-279.89c-3.691-52.79 9.97-125.84 12.475-155.72.589-7.03-1.529-21.6-3.083-28.48-6.264-27.74-33.714-140.47-33.714-140.47l-26.842-99.58s-20.727-86.69-36.543-136.59c-18.408-58.08-80.351-123.24-104.231-200.76-22.687-73.64 30.244-255.65 30.244-255.65s-.404-65.74.901-114.7c.5-18.74 5.641-37.44 6.76-46.63 1.831-15.04 11.865-33.34 17.233-46.03 7.326-17.32 26.724-57.92 26.724-57.92l35.122-66.31 17.955-50.76 33.899-51.97 55.267-49.05 49.359-29.27s43.288-42.71 58.986-52.62c12.308-7.76 23.07-6.28 33.084-10.04 13.233-4.96 19.699-12.08 25.808-18.92 5.989-6.71 9.046-12.87 15.046-18.47 7.58-7.07 30.433-23.99 30.433-23.99s16.592-6.46 20.889-12.9c6.932-10.38 20.961-43.86 20.961-43.86l21.849-29.634 20.778-41.247s25.648-15.434 29.141-27.362c10.457-35.706-22.229-173.595-30.667-209.437-2.272-9.646-20.322 3.372-30.243.027-10.86-3.66-19.869-5.174-29.658-13.124-13.207-10.726-29.294-24.86-37.261-35.802-10.917-14.993-23.509-37.791-28.997-55.141-5.043-15.943-4.279-35.544-2.319-50.135 1.848-13.76 5.277-22.954 11.524-29.47 5.412-5.646 25.955-9.626 25.955-9.626s-10.29-78.999-11.185-108.467c-.716-23.591 1.838-47.008 5.815-68.343 3.563-19.109 10.309-38.889 17.891-57.312 7.655-18.601 14.078-35.992 24.85-53.281 10.917-17.524 26.696-36.012 40.835-52.821 14.396-17.114 30.392-35.847 47.244-50.769 18.282-16.189 35.247-32.874 53.995-44.66 15.705-9.872 49.399-21.204 67.745-25.584 16.724-3.992 36.919-4.522 51.02-5.049 15.027-.561 27.226-.516 39.14 1.683 11.254 2.077 32.346 11.512 32.346 11.512l-24.72-45.261 44.802 19.881 11.204-13.638 20.375 14.586s19.886 31.061 30.82 30.069c13.339-1.21 30.017 22.408 38.492 29.74 5.096 4.409 9.379 11.956 13.58 16.635 5.049 5.624 10.781 8.151 13.684 15.47 2.903 7.318 1.501 21.148 3.733 28.442 1.997 6.529 7.157 16.729 12.688 16.959 5.531.229 20.842-14.971 20.842-14.971s1.54 19.735 3.95 26.572c2.41 6.848 6.75 10.466 10.24 15.295 3.49 4.815 9.36 10.722 9.73 14.834.37 4.112-7.8 8.876-7.4 12.984.43 4.525 10.02 14.164 10.02 14.164l19.83 17.018s6.78 10.32 9.43 15.094c2.65 4.773.84 13.688 1.7 18.616.97 5.502 4.09 14.396 4.09 14.396l4.28 21.335s2.92 15.397 2.76 23.516c-.34 17.643-4.83 82.34-4.83 82.34s-4.16 24.527-2.53 32.574c1.37 6.782 9.43 15.382 12.05 21.497 3.24 7.57 7.4 23.924 7.4 23.924s4.98 33.335 5.99 46.687c.98 13.03 2.07 26.591.89 37.671-1.42 13.378-2.47 29.885-8.13 43.283-5.8 13.74-22.74 24.271-26.67 39.566-5.58 21.749-.09 62.019-6.83 90.929-6.73 28.911-31.49 79.482-33.56 82.535-2.07 3.053-37.446 28.489-39.102 49.431-1.59 20.111-2.014 91.779 3.426 104.809 3.533 8.47 78.226 88.92 99.866 108.49 7.73 6.98 20.54 4.45 29.97 8.89 11.19 5.27 24.2 16.21 37.18 22.73 14 7.04 46.79 19.48 46.79 19.48l42.4 13.85s58.99 23.13 80.94 42.58c21.95 19.45 50.74 74.1 50.74 74.1l43.85 35.42 18.87 22.76 20.61 18.04 12.06 18.03s36.59 40.32 45.65 57.54c7.23 13.73 8.71 45.73 8.71 45.73s2.7 26.54 9.65 37.36c11.57 18 43.25 44.59 59.76 70.65 18.9 29.83 53.62 108.3 53.62 108.3l33.38 49.37 23.01 33.6 25.82 49s23.36 72.69 34.24 96.96c7.87 17.56 31.03 48.66 31.03 48.66l25.87 43.32s21.58 46.69 20.26 71.39c-1.78 33.18-30.94 127.73-30.94 127.73s-12.08 73.25-30.59 100.79c-18.5 27.53-80.45 64.43-80.45 64.43l-64 24.26-39.81 10.92-40.27 6.85-51.09 8.15s-38.95-3.03-46.46 2.77c-7.52 5.79 1.38 32.02 1.38 32.02s18.59 63.09 27.48 93.01c8.58 28.85 25.86 86.51 25.86 86.51l20.75 84.53s14.64 75.82 20.43 87.17c5.8 11.35 27.83 108.31 27.83 108.31l4.88 63.94" transform="translate(-8.821 -17.769)"/></svg>