<svg viewBox="0 0 904 432" xmlns="http://www.w3.org/2000/svg" xmlSpace="preserve" style="fill-rule:evenodd;clip-rule:evenodd;stroke-linejoin:round;stroke-miterlimit:2"><path d="M1501.47 747.323c-51.07 24.179-103.64 50.791-141.82 75.013-25.92 16.447-45.25 32.085-53.76 45.053-5.25 8.001-6.71 15.433-4.91 21.826 2.17 7.728 7.53 11.501 15.4 11.97 5.38.32 12.46-1.345 20.51-4.727 34.69-14.573 91.38-61.837 99.56-68.594 16.76-13.856 33-28.261 48.98-42.936 12.76-11.714 25.36-23.597 37.95-35.496 56.11-27.393 108.06-51.191 133.39-64.312.88 1.367 2.38 2.423 4.73 2.731 10.38 1.367 22.13-.602 34.34-4.294 10.78-3.261 21.93-7.883 32.75-12.626 4.86 2.35 13.58 1.527 23.42-1.229 2.92-.82 5.97-1.788 9.03-2.834l-.57.358c-.5.33-.8.596-.93.72-1.97 1.831-1.63 3.777-1.53 4.439.23 1.61 1.09 2.885 2.71 3.713 1.08.55 3.68 1.018 7.37.819 4.57-.246 11.61-1.214 18.89-2.32-1 2.477-.38 4.821 1.72 6.961 4.01 4.075 12.21 6.645 23.48 7.03 1.79.061 3.66.075 5.62.039-24.45 15.952-44.78 33.28-53.34 49.774-2.04 3.946-2.9 9.534-1.49 14.059 1.18 3.785 3.7 6.974 8.01 8.614 18.24 6.953 53.45 2.18 93.77-8.941 75.06-20.704 168.75-61.967 199.43-77.182 3.56-1.768 109.51-55.145 126.12-70.334 5.92-5.415 3.65-10.002.34-11.473-1.63-.724-6.12-.882-13.99 1.085a4.684 4.684 0 0 0-3.4 5.67 4.675 4.675 0 0 0 3.21 3.345c-29.09 19.144-113.86 60.543-117.01 62.072-26.63 12.918-101.02 45.033-169.04 66.231-48.6 15.148-93.74 25.296-114.66 17.145-.73-.285-.2-1.218-.11-1.918.11-.783.35-1.543.68-2.171 8.56-16.245 30.19-32.781 55.05-48.183a520.393 520.393 0 0 1 18.91-11.133c14.33-2.369 29.93-5.866 45.32-10.071 31.35-8.563 61.81-20.067 78.91-30.58 5.91-3.638 10.34-7.279 13.03-10.604 2.8-3.463 3.98-6.903 4-9.991.02-5.191-3.41-9.559-11.55-9.543-13.2.026-49.65 15.369-51.99 16.438-20.63 9.495-54.96 25.176-87.03 43.574-10.75 1.7-20.5 2.607-28.48 2.46-3.66-.067-6.9-.249-9.56-.735 2.98-1.255 5.88-2.207 6.37-2.376 28.24-9.665 17.24-15.689 1.08-13.651-5.67.716-16.53 2.749-26.52 4.394 4.96-3.017 9.78-5.954 12.75-7.816 1.45-.902 2.49-1.574 2.97-1.916.55-.393.87-.711 1.01-.863 2.73-3.023.79-5.618-.12-6.514-.92-.899-2.32-1.702-4.4-1.782-1.57-.06-3.99.35-7.02 1.28-8.79 2.701-24.31 9.78-37.78 13.972 6.12-2.614 11.94-4.933 17.31-6.678 1.63-.529 4.75-1.675 5.87-2.776 2.02-1.981 2.22-4.108.06-6.308-2.21-2.248-7.9-2.509-14.58-.327-9.5 3.103-21.66 9.772-24.38 11.443-2.42 1.483-7.33 4.334-8.92 6.443-.57.759-.91 1.523-1.08 2.252-10.44 4.744-21.15 9.336-31.54 12.638-11.22 3.565-22.04 5.623-31.65 4.518 1.69-.92 3.2-1.767 4.51-2.536 22.49-13.224 44.74-27.063 67.16-40.456 9.61-5.742 19.25-11.397 28.94-16.893 1.12-.63 6.29-2.779 8.22-3.904 1.22-.714 1.8-1.548 1.96-1.922.63-1.418.3-2.562-.62-3.473-.47-.463-1.56-1.256-3.39-.795-.9.228-2.72 1.026-5.13 2.293-3.11 1.628-7.37 4.057-12 6.775-7.16 3.964-14.28 8.006-21.4 12.088a3883.87 3883.87 0 0 0-19.78 11.446c-11.54 5.44-23.74 10.618-34.73 17.268-5.81 3.521-11.3 7.445-16.19 12.031-17.96 9.537-60.81 28.229-110.75 51.071 15.43-14.433 31-28.721 46.99-42.578 2.42-2.091 4.85-4.165 7.29-6.223 4.26-2.05 8.3-3.961 10.61-4.984 7.94-3.52 15.84-7.142 23.65-10.974 7.84-3.847 15.57-7.91 23.13-12.291 24.24-14.05 48.05-28.59 71.41-43.839 23.39-15.274 46.31-31.257 68.76-48.12 12.79-9.626 28.19-19.526 41.7-30.802 9.69-8.089 18.38-16.911 24.7-26.722 1.93-3.004 5.29-8.927 5.53-12.175.18-2.459-.56-4.464-1.65-6.04-1.24-1.77-3.14-3.192-6.14-3.663-12.58-1.937-31.3 4.741-51.28 16.125-36.97 21.072-79.34 57.378-93.79 69.336-30.72 25.812-63.37 49.339-94.97 74.13-13.7 10.752-27.2 21.754-40.29 33.237-28.6 25.089-55.86 51.534-83.34 77.745zm-29.32 27.652c-24.15 12.34-47.82 24.946-69.27 37.267-36.22 20.81-66.08 40.597-80.41 57.108-5.37 6.179-8.82 11.262-7.48 15.861.48 1.665 2.16 1.447 4.07 1.256 3.42-.342 7.49-1.695 12.04-3.649 7.5-3.227 16.07-8.125 24.94-13.798 30.51-19.521 64.22-48.202 70.29-53.301 15.68-13.169 30.86-26.842 45.82-40.744zm499.07-144.894c-14.35 3.67-35.6 13.057-37.28 13.829-10.05 4.587-23.4 10.656-38.15 17.794 28.51-8.427 55.81-19.103 71.37-28.884a71.432 71.432 0 0 0 4.06-2.739zm-117.64-137.438c-2.02.493-4.15 1.156-6.37 1.941-11.56 4.09-25.03 11.852-38.72 20.954-31.95 21.244-64.78 49.943-76.99 60.306-35.08 29.352-72.59 55.829-108.36 84.392 3.84-1.921 7.67-3.881 11.47-5.892 7.57-4.007 15.03-8.219 22.32-12.741 23.67-14.696 46.88-29.881 69.65-45.729 22.72-15.821 44.98-32.301 66.73-49.655 12.35-9.83 27.29-19.982 40.31-31.457 7.72-6.811 14.74-14.095 19.96-22.119z" transform="matrix(1 0 0 1 -1296.825 -473.374)"/></svg>